# File created by Blade
# Date/Time:  Tue Apr 07 20:29:34 2015
# Frame Rate: 120.000 fps
#------------------------------------------------------
:FULLY-SPECIFIED
:DEGREES
3328
root -0.494905 32.944336 -3.249241 9.022107 2.326782 -2.290990
Spine -11.501609 -1.453935 -1.393855
Head 12.215637 -3.417927 -0.258922
LeftShoulder -16.582043 37.959223 21.737855
LeftArm 53.703460 -44.005050 -54.644833
LeftForeArm 6.206233 -0.000000 0.473409
LeftHand 8.362994 0.000000 0.389108
LeftHandThumb1 -26.253704 0.000000 33.147579
RightShoulder -4.022609 -0.314372 -25.602012
RightArm 10.813915 6.584919 54.992747
RightForeArm -7.634419 -0.000000 14.853395
RightHand 9.011567 -0.000000 2.498089
RightHandThumb1 -24.326973 -0.000000 -32.862282
LeftUpLeg -8.053752 -9.374592 1.943963
LeftLeg 9.446997 -0.000000 -0.000000
LeftFoot -18.520132 14.716950 -17.095293
LeftToeBase -6.215254 -0.000000 0.000000
RightUpLeg -4.795665 0.389618 3.614288
RightLeg -1.464595 -0.000000 0.000000
RightFoot -7.580489 -4.970495 13.112010
RightToeBase 3.930172 -0.000000 -0.000000
3329
root -0.499149 32.919396 -3.264313 8.868239 2.158650 -2.073770
Spine -11.368107 -1.425054 -1.587554
Head 11.991249 -3.298844 -0.223939
LeftShoulder -16.599598 37.913565 21.795217
LeftArm 53.713444 -44.250041 -54.656405
LeftForeArm 6.309508 -0.000000 -0.080717
LeftHand 8.116394 -0.000000 0.188893
LeftHandThumb1 -26.253704 0.000000 33.147579
RightShoulder -3.928910 -0.071470 -25.757451
RightArm 10.888602 6.320920 54.886119
RightForeArm -7.741647 -0.000000 14.417039
RightHand 8.563503 -0.000000 3.042055
RightHandThumb1 -24.326973 -0.000000 -32.862282
LeftUpLeg -7.858829 -9.210155 1.650895
LeftLeg 9.437719 -0.000000 -0.000000
LeftFoot -18.566730 14.979004 -16.700375
LeftToeBase -6.337154 -0.000000 0.000000
RightUpLeg -4.721573 0.264228 3.396270
RightLeg -1.267218 -0.000000 0.000000
RightFoot -8.053924 -4.513621 13.102131
RightToeBase 4.059865 -0.000000 -0.000000
3330
root -0.499374 32.890350 -3.282975 8.719141 2.010139 -1.796071
Spine -11.205722 -1.430546 -1.829458
Head 11.722394 -3.174863 -0.243185
LeftShoulder -16.732410 37.884736 21.732627
LeftArm 53.888540 -44.584135 -54.773970
LeftForeArm 6.318736 0.000000 -0.532139
LeftHand 7.849206 -0.000000 0.159767
LeftHandThumb1 -26.253704 0.000000 33.147579
RightShoulder -3.843237 0.229069 -25.807737
RightArm 10.981601 6.164879 54.613336
RightForeArm -7.805613 -0.000000 13.875408
RightHand 9.064963 0.000000 2.363216
RightHandThumb1 -24.326973 -0.000000 -32.862282
LeftUpLeg -7.547080 -9.542180 1.339370
LeftLeg 9.157576 -0.000000 -0.000000
LeftFoot -18.616041 15.391598 -16.548662
LeftToeBase -5.931935 -0.000000 0.000000
RightUpLeg -4.667992 0.050419 3.126692
RightLeg -1.051714 -0.000000 0.000000
RightFoot -8.552888 -4.042771 12.939779
RightToeBase 4.140445 -0.000000 -0.000000
3331
root -0.499909 32.860888 -3.302715 8.588401 1.900679 -1.482589
Spine -11.047890 -1.515352 -2.103676
Head 11.418909 -3.013136 -0.248303
LeftShoulder -17.003560 38.063216 21.493436
LeftArm 54.450234 -45.193784 -55.225700
LeftForeArm 6.335286 -0.000000 -0.867603
LeftHand 7.736656 -0.000000 0.160826
LeftHandThumb1 -26.253704 0.000000 33.147579
RightShoulder -3.754161 0.584048 -25.922949
RightArm 10.980020 6.131612 54.451952
RightForeArm -7.850490 -0.000000 13.471070
RightHand 9.020030 -0.000000 2.282403
RightHandThumb1 -24.326973 -0.000000 -32.862282
LeftUpLeg -7.347878 -9.690590 0.976829
LeftLeg 9.043458 -0.000000 -0.000000
LeftFoot -18.460638 15.537671 -16.124476
LeftToeBase -6.065471 -0.000000 0.000000
RightUpLeg -4.655365 -0.299494 2.837942
RightLeg -0.803998 -0.000000 0.000000
RightFoot -9.027870 -3.475466 12.745707
RightToeBase 4.140718 -0.000000 -0.000000
3332
root -0.504716 32.832374 -3.324626 8.526985 1.836879 -1.141501
Spine -10.943564 -1.630437 -2.441044
Head 11.064842 -2.875164 -0.172710
LeftShoulder -17.228685 38.057200 21.365530
LeftArm 54.809212 -45.746234 -55.635810
LeftForeArm 6.496258 -0.000000 -0.941601
LeftHand 7.577173 -0.000000 0.158382
LeftHandThumb1 -26.253704 0.000000 33.147579
RightShoulder -3.747010 0.856946 -25.948900
RightArm 11.034207 6.155823 54.226724
RightForeArm -7.813497 -0.000000 13.130493
RightHand 9.211029 -0.000000 2.040774
RightHandThumb1 -24.326973 -0.000000 -32.862282
LeftUpLeg -7.319512 -9.779264 0.584763
LeftLeg 9.098046 -0.000000 -0.000000
LeftFoot -18.176666 15.612569 -15.521428
LeftToeBase -5.671048 -0.000000 0.000000
RightUpLeg -4.669213 -0.581924 2.526116
RightLeg -0.650426 -0.000000 0.000000
RightFoot -9.481614 -3.020120 12.545358
RightToeBase 4.170339 -0.000000 -0.000000
3333
root -0.502930 32.807835 -3.345316 8.508206 1.805491 -0.757851
Spine -10.892511 -1.788043 -2.801282
Head 10.740495 -2.790247 -0.146582
LeftShoulder -17.451174 37.922626 21.248031
LeftArm 55.033870 -46.255854 -55.998502
LeftForeArm 6.698528 -0.000000 -0.871873
LeftHand 7.480584 -0.000000 0.217289
LeftHandThumb1 -26.253704 0.000000 33.147579
RightShoulder -3.736341 1.140712 -25.976390
RightArm 11.018060 6.310229 54.003720
RightForeArm -7.949010 -0.000000 12.913526
RightHand 9.312889 0.000000 1.824389
RightHandThumb1 -24.326973 -0.000000 -32.862282
LeftUpLeg -7.285913 -9.925668 0.174890
LeftLeg 8.993959 -0.000000 -0.000000
LeftFoot -17.661741 15.726134 -14.790468
LeftToeBase -5.063379 -0.000000 0.000000
RightUpLeg -4.711905 -0.916770 2.163834
RightLeg -0.522953 -0.000000 0.000000
RightFoot -9.907265 -2.567105 12.313561
RightToeBase 4.115175 -0.000000 -0.000000
3334
root -0.497797 32.787640 -3.367100 8.602495 1.804937 -0.365084
Spine -10.977706 -1.967703 -3.161811
Head 10.450568 -2.719495 -0.122983
LeftShoulder -17.719420 37.996570 21.035174
LeftArm 55.505625 -46.891112 -56.532641
LeftForeArm 6.817432 -0.000000 -0.703037
LeftHand 7.433355 -0.000000 0.152197
LeftHandThumb1 -26.253704 0.000000 33.147579
RightShoulder -3.762945 1.343753 -26.034485
RightArm 10.998185 6.526424 53.832610
RightForeArm -8.179234 0.000000 12.831781
RightHand 9.152540 -0.000000 2.027823
RightHandThumb1 -24.326973 -0.000000 -32.862282
LeftUpLeg -7.393804 -10.064939 -0.213180
LeftLeg 8.899418 -0.000000 -0.000000
LeftFoot -16.949951 15.790397 -14.208272
LeftToeBase -4.585088 -0.000000 0.000000
RightUpLeg -4.808654 -1.164369 1.772264
RightLeg -0.511943 -0.000000 0.000000
RightFoot -10.265678 -2.167196 12.271502
RightToeBase 4.299295 -0.000000 -0.000000
